<svg xmlns="http://www.w3.org/2000/svg" viewBox="0 0 900 820" role="img" aria-labelledby="title desc">
<title id="title">提问、想象、规划、创造、验证、分享、提升的项目循环</title>
<desc id="desc">七个动作围成顺时针环；提升重新连回提问。可以从任一步进入，也可随时回头。</desc>
<defs><marker id="arrow" viewBox="0 0 10 10" refX="8.5" refY="5" markerWidth="7" markerHeight="7" orient="auto-start-reverse"><path d="M1 1 L9 5 L1 9" fill="none" stroke="#668575" stroke-width="1.8" stroke-linejoin="round"/></marker></defs>
<style>.kicker{font:700 13px Arial,sans-serif;letter-spacing:3px;fill:#577262}.headline{font:700 31px 'Microsoft YaHei',sans-serif;fill:#243b32}.caption{font:14px 'Microsoft YaHei',sans-serif;fill:#5b7165}.middle-kicker{font:700 12px Arial,sans-serif;letter-spacing:2px;fill:#7d9a85}.middle-title{font:700 25px 'Microsoft YaHei',sans-serif;fill:#2a4b3a}.middle-sub{font:13px 'Microsoft YaHei',sans-serif;fill:#5e7668}.index{font:700 11px Arial,sans-serif;letter-spacing:1px;fill:#a68552}.node-title{font:700 22px 'Microsoft YaHei',sans-serif;fill:#263d31}.node-sub{font:12px 'Microsoft YaHei',sans-serif;fill:#637a6a}</style>
<rect width="900" height="820" fill="#f7f4ec"/>
<text x="48" y="51" class="kicker">AHALAB × MMCOOL / PROJECT STUDIO</text>
<text x="48" y="92" class="headline">从一个问题，到下一次提问</text>
<text x="48" y="119" class="caption">根据 NC State Engineering Design Process 改写的课堂环图</text>
<path d="M 530.1 190.4 A 246 246 0 0 1 581.9 215.4" fill="none" stroke="#668575" stroke-width="2.6" marker-end="url(#arrow)"/><path d="M 681.8 340.6 A 246 246 0 0 1 694.6 396.7" fill="none" stroke="#668575" stroke-width="2.6" marker-end="url(#arrow)"/><path d="M 658.9 552.8 A 246 246 0 0 1 623.1 597.8" fill="none" stroke="#668575" stroke-width="2.6" marker-end="url(#arrow)"/><path d="M 478.8 667.3 A 246 246 0 0 1 421.2 667.3" fill="none" stroke="#668575" stroke-width="2.6" marker-end="url(#arrow)"/><path d="M 276.9 597.8 A 246 246 0 0 1 241.1 552.8" fill="none" stroke="#668575" stroke-width="2.6" marker-end="url(#arrow)"/><path d="M 205.4 396.7 A 246 246 0 0 1 218.2 340.6" fill="none" stroke="#668575" stroke-width="2.6" marker-end="url(#arrow)"/><path d="M 318.1 215.4 A 246 246 0 0 1 369.9 190.4" fill="none" stroke="#668575" stroke-width="2.6" marker-end="url(#arrow)"/><circle cx="450" cy="423" r="139" fill="#e6ede2" stroke="#9eae9b" stroke-width="1.5"/><circle cx="450" cy="423" r="122" fill="none" stroke="#c9d8c7" stroke-width="1"/><text x="450" y="396" text-anchor="middle" class="middle-kicker">PROJECT LOOP</text><text x="450" y="436" text-anchor="middle" class="middle-title">做一版，再问一次</text><text x="450" y="468" text-anchor="middle" class="middle-sub">从任意一步进入 · 随时回头</text><g transform="translate(374.0 140.0)"><rect width="152" height="74" rx="13" fill="#fffdf7" stroke="#94aa98" stroke-width="1.7"/><text x="16" y="25" class="index">01</text><text x="75" y="37" text-anchor="middle" class="node-title">提问</text><text x="75" y="58" text-anchor="middle" class="node-sub">什么值得弄明白</text></g><g transform="translate(566.3 232.6)"><rect width="152" height="74" rx="13" fill="#fffdf7" stroke="#94aa98" stroke-width="1.7"/><text x="16" y="25" class="index">02</text><text x="75" y="37" text-anchor="middle" class="node-title">想象</text><text x="75" y="58" text-anchor="middle" class="node-sub">不止一种办法</text></g><g transform="translate(613.8 440.7)"><rect width="152" height="74" rx="13" fill="#fffdf7" stroke="#94aa98" stroke-width="1.7"/><text x="16" y="25" class="index">03</text><text x="75" y="37" text-anchor="middle" class="node-title">规划</text><text x="75" y="58" text-anchor="middle" class="node-sub">决定先试什么</text></g><g transform="translate(480.7 607.6)"><rect width="152" height="74" rx="13" fill="#fffdf7" stroke="#94aa98" stroke-width="1.7"/><text x="16" y="25" class="index">04</text><text x="75" y="37" text-anchor="middle" class="node-title">创造</text><text x="75" y="58" text-anchor="middle" class="node-sub">做出第一版</text></g><g transform="translate(267.3 607.6)"><rect width="152" height="74" rx="13" fill="#fffdf7" stroke="#94aa98" stroke-width="1.7"/><text x="16" y="25" class="index">05</text><text x="75" y="37" text-anchor="middle" class="node-title">验证</text><text x="75" y="58" text-anchor="middle" class="node-sub">看结果与预期</text></g><g transform="translate(134.2 440.7)"><rect width="152" height="74" rx="13" fill="#f2e4ca" stroke="#a97d3e" stroke-width="1.7"/><text x="16" y="25" class="index">06</text><text x="75" y="37" text-anchor="middle" class="node-title">分享</text><text x="75" y="58" text-anchor="middle" class="node-sub">让别人看见</text></g><g transform="translate(181.7 232.6)"><rect width="152" height="74" rx="13" fill="#fffdf7" stroke="#94aa98" stroke-width="1.7"/><text x="16" y="25" class="index">07</text><text x="75" y="37" text-anchor="middle" class="node-title">提升</text><text x="75" y="58" text-anchor="middle" class="node-sub">改一处再试</text></g>
<line x1="48" y1="758" x2="852" y2="758" stroke="#cbd7ca"/>
<text x="48" y="786" class="caption">验证：结果和预期相符吗？　分享：别人看到了什么？　提升：下一版先改哪里？</text>
</svg>